<?xml version="1.0" encoding="utf-8"?>
<!-- Generator: Adobe Illustrator 22.0.1, SVG Export Plug-In . SVG Version: 6.00 Build 0)  -->
<svg version="1.1" id="Camada_1" xmlns="http://www.w3.org/2000/svg" xmlns:xlink="http://www.w3.org/1999/xlink" x="0px" y="0px"
	 viewBox="0 0 150 150" style="enable-background:new 0 0 150 150;" xml:space="preserve">
<style type="text/css">
	.st0{display:none;fill:#002E37;}
	.st1{fill:#B8D700;}
	.st2{fill:#205CCF;}
	.st3{fill:#FFFFFF;}
	.st4{font-family:'MyriadPro-BoldIt';}
	.st5{font-size:36.4967px;}
	.st6{display:none;fill:#FFFFFF;}
	.st7{font-family:'MyriadPro-Regular';}
	.st8{fill:#99003C;}
	.st9{font-family:'MyriadPro-It';}
	.st10{font-size:11.1352px;}
</style>
<g>
	<rect x="-12" y="-9" class="st0" width="184" height="174"/>
	<g>
		<path class="st1" d="M36.5,120.6c-0.4,0-0.8-0.3-0.8-0.7l-6-87.9c0-0.2,0.1-0.4,0.2-0.6c0.1-0.2,0.4-0.3,0.6-0.3l87-2
			c0.2,0,0.4,0.1,0.6,0.2c0.2,0.2,0.2,0.4,0.2,0.6l-3.9,85.9c0,0.4-0.3,0.7-0.8,0.8L36.5,120.6C36.5,120.6,36.5,120.6,36.5,120.6z
			 M31.4,32.7l5.9,86.3l75.6-3.8l3.8-84.4L31.4,32.7z"/>
	</g>
	
		<rect x="29" y="29.2" transform="matrix(0.7071 -0.7071 0.7071 0.7071 -31.1485 74.8577)" class="st2" width="91.6" height="91.6"/>
	<text transform="matrix(0.8606 -0.1126 0.1297 0.9916 22.8393 86.0192)" class="st3 st4 st5">SOUZA</text>
	<text transform="matrix(0.8606 -0.1126 0.1297 0.9916 27.5708 86.0197)" class="st6 st7 st5">SOUZA</text>
	<g>
		<path class="st1" d="M113.6,116.7C113.6,116.7,113.6,116.7,113.6,116.7c-0.5,0-0.8-0.4-0.8-0.8l3.9-85.9c0-0.4,0.4-0.8,0.8-0.8
			c0.4,0,0.8,0.4,0.8,0.8l-3.9,85.9C114.4,116.4,114.1,116.7,113.6,116.7z"/>
	</g>
	<g>
		<path class="st8" d="M28.6,76.5c-0.4,0-0.8-0.3-0.8-0.7l-0.1-1.5C27,65,26.4,55.5,25.8,46.1c0-0.4,0.3-0.8,0.7-0.8
			c0.4,0,0.8,0.3,0.8,0.7c0.6,9.4,1.2,18.9,1.9,28.1l0.1,1.5C29.4,76.1,29.1,76.4,28.6,76.5C28.6,76.5,28.6,76.5,28.6,76.5z"/>
	</g>
	<g>
		<path class="st1" d="M120.7,64.2C120.7,64.2,120.7,64.2,120.7,64.2c-0.5,0-0.8-0.4-0.8-0.8c0.3-6.5,0.6-13,0.9-19.3
			c0.3-6,0.6-12.1,0.8-18.2c-1.8,0-3.6,0.1-5.4,0.1c-0.9,0-1.8,0-2.7,0.1c-0.4,0-0.8-0.3-0.8-0.8c0-0.4,0.3-0.8,0.8-0.8
			c0.9,0,1.8,0,2.6-0.1c2-0.1,4.2-0.1,6.2-0.1c0.1,0,0.2,0,0.3,0c0,0,0,0,0,0h0c0,0,0,0,0.1,0c0,0,0,0,0,0c0.1,0.1,0.2,0.1,0.3,0.2
			c0,0,0,0,0,0c0,0,0,0,0,0c0,0,0.1,0.1,0.1,0.1c0,0,0,0,0,0c0,0,0,0,0,0c0.1,0.1,0.1,0.2,0.1,0.3c0,0,0,0,0,0l0,0c0,0,0,0,0,0
			c-0.3,6.4-0.6,12.8-0.9,19.1c-0.3,6.3-0.6,12.9-0.9,19.3C121.5,63.9,121.1,64.2,120.7,64.2z"/>
	</g>
	<text transform="matrix(0.9998 -2.098143e-02 2.098143e-02 0.9998 35.7096 95.7946)" class="st3 st9 st10">CONTABILIDADE</text>
	<text transform="matrix(0.9998 -2.098143e-02 2.098143e-02 0.9998 36.4236 95.7953)" class="st6 st7 st10">CONTABILIDADE</text>
</g>
</svg>
